{"title":"Witness.For.The.Prosecution.1957.720p.HDTV.x264-DcX","uid":7092389,"size":4697891560,"categoryP":"video","categoryS":"hd___movies","magnet":"?xt=urn:btih:ffae45f53c8bf085141820dc0132d83f70a2906b&amp;dn=Witness.For.The.Prosecution.1957.720p.HDTV.x264-DcX&amp;tr=udp%3A%2F%2Ftracker.openbittorrent.com%3A80&amp;tr=udp%3A%2F%2Fopen.demonii.com%3A1337&amp;tr=udp%3A%2F%2Ftracker.coppersurfer.tk%3A6969&amp;tr=udp%3A%2F%2Fexodus.desync.com%3A6969","seeders":1,"leechers":2,"uploader":"mfccorrea","files":4,"time":1331410462,"description":"Having just recovered from a heart attack, fabled British barrister Sir Wilfred Robards (Charles Laughton) has been ordered by his doctor to give up everything he holds dear-brandy, cigars and especially courtroom cases. Robards' already shaky resolve to follow doctor's orders flies out the window when he takes up the defense of Leonard Vole (Tyrone Power), a personable young man accused of murdering a rich old widow. The case becomes something of a sticky wicket when Vole's &quot;loving&quot; German wife Christine (Marlene Dietrich) announces that she's not legally married to Robards' client-and she fully intends to appear as a witness for the prosecution! At the close of this film, a narrator implores the audience not to divulge the ending; we will herein honor that request. A delicious Billy Wilder mixture of humor, intrigue and melodrama, Witness for the Prosecution is distinguished by its hand-picked supporting cast: John Williams as the police inspector, Henry Daniell as Robards' law partner, Una O'Connor as the murder victim's stone-deaf maid, Torin Thatcher as the prosecutor, Ruta Lee as a sobbing courtroom spectator, and Charles Laughton's wife Elsa Lanchester as Robards' ever-chipper nurse (a role especially written for the film, so that Lanchester could look after Laughton on the set). And keep an eye out for that uncredited actress playing the vengeful-and pivotal-cockney. Adapted by Wilder, Harry Kurnitz and Larry Marcus from the play by Agatha Christie, Witness for the Prosecution was remade for television in 1982.\n\n   General\n      Complete name :Witness.For.The.Prosecution.1957.720p.HDTV.x264-DcX.mkv\n      Format : Matroska\n      File size : 4.37 GiB\n      Duration : 1h 51mn\n      Overall bit rate : 5 625 Kbps\n      Encoded date : UTC 2010-03-16 18:31:48\n      Writing application : mkvmerge v3.2.0 ('Beginnings') built on Feb 12 2010 16:46:17\n      Writing library : libebml v0.7.9 + libmatroska v0.8.1\n   Video #1\n      ID : 1\n      Format : AVC\n      Format/Info : Advanced Video Codec\n      Format profile : &lt;a class=&quot;__cf_email__&quot; href=&quot;/cdn-cgi/l/email-protection&quot; data-cfemail=&quot;3179585659717d051f00&quot;&gt;[email&amp;#160;protected]&lt;/a&gt;&lt;script cf-hash='f9e31' type=&quot;text/javascript&quot;&gt;\n/* &lt;![CDATA[ */!function(){try{var t=&quot;currentScript&quot;in document?document.currentScript:function(){for(var t=document.getElementsByTagName(&quot;script&quot;),e=t.length;e--;)if(t[e].getAttribute(&quot;cf-hash&quot;))return t[e]}();if(t&amp;&amp;t.previousSibling){var e,r,n,i,c=t.previousSibling,a=c.getAttribute(&quot;data-cfemail&quot;);if(a){for(e=&quot;&quot;,r=parseInt(a.substr(0,2),16),n=2;a.length-n;n+=2)i=parseInt(a.substr(n,2),16)^r,e+=String.fromCharCode(i);e=document.createTextNode(e),c.parentNode.replaceChild(e,c)}}}catch(u){}}();/* ]]&gt; */&lt;/script&gt;\n      Format settings, CABAC : Yes\n      Format settings, ReFrames : 8 frames\n      Muxing mode : Container profile=&lt;a class=&quot;__cf_email__&quot; href=&quot;/cdn-cgi/l/email-protection&quot; data-cfemail=&quot;f4a19a9f9a9b839ab4c0dac5&quot;&gt;[email&amp;#160;protected]&lt;/a&gt;&lt;script cf-hash='f9e31' type=&quot;text/javascript&quot;&gt;\n/* &lt;![CDATA[ */!function(){try{var t=&quot;currentScript&quot;in document?document.currentScript:function(){for(var t=document.getElementsByTagName(&quot;script&quot;),e=t.length;e--;)if(t[e].getAttribute(&quot;cf-hash&quot;))return t[e]}();if(t&amp;&amp;t.previousSibling){var e,r,n,i,c=t.previousSibling,a=c.getAttribute(&quot;data-cfemail&quot;);if(a){for(e=&quot;&quot;,r=parseInt(a.substr(0,2),16),n=2;a.length-n;n+=2)i=parseInt(a.substr(n,2),16)^r,e+=String.fromCharCode(i);e=document.createTextNode(e),c.parentNode.replaceChild(e,c)}}}catch(u){}}();/* ]]&gt; */&lt;/script&gt;\n      Codec ID : V_MPEG4/ISO/AVC\n      Duration : 1h 51mn\n      Bit rate : 5 130 Kbps\n      Nominal bit rate : 5 240 Kbps\n      Width : 1 280 pixels\n      Height : 768 pixels\n      Display aspect ratio : 1.667\n      Frame rate : 25.000 fps\n      Resolution : 24 bits\n      Colorimetry : 4:2:0\n      Scan type : Progressive\n      Bits/(Pixel*Frame) : 0.209\n      Stream size : 3.99 GiB (91%)\n      Writing library : x264 core 80 r1376M 3feaec2  \n   Audio #2\n      ID : 2\n      Format : AC-3\n      Format/Info : Audio Coding 3\n      Format profile : Dolby Digital\n      Codec ID : A_AC3\n      Duration : 1h 51mn\n      Bit rate mode : Constant\n      Bit rate : 384 Kbps\n      Channel(s) : 2 channels\n      Channel positions : L R\n      Sampling rate : 48.0 KHz\n      Video delay : 104ms\n      Stream size : 306 MiB (7%)\n      Title : English\n      Language : English\n   Text #3\n      ID : 3\n      Format : UTF-8\n      Codec ID : S_TEXT/UTF8\n      Codec ID/Info : UTF-8 Plain Text\n      Title : English\n      Language : English\n &lt;a href=&quot;\nhttp://www.imdb.com/title/tt0051201/&quot; rel=&quot;nofollow&quot; target=&quot;_NEW&quot;&gt;\nhttp://www.imdb.com/title/tt0051201/&lt;/a&gt;\n\nAudio: English\nSubtitles: English (in mkv), French, Spanish and Portuguese (srt)","torrent":{"xt":"urn:btih:ffae45f53c8bf085141820dc0132d83f70a2906b","amp;dn":"Witness.For.The.Prosecution.1957.720p.HDTV.x264-DcX","amp;tr":["udp%3A%2F%2Ftracker.openbittorrent.com%3A80","udp%3A%2F%2Fopen.demonii.com%3A1337","udp%3A%2F%2Ftracker.coppersurfer.tk%3A6969","udp%3A%2F%2Fexodus.desync.com%3A6969"],"infoHash":"ffae45f53c8bf085141820dc0132d83f70a2906b","infoHashBuffer":{"type":"Buffer","data":[255,174,69,245,60,139,240,133,20,24,32,220,1,50,216,63,112,162,144,107]},"announce":[],"urlList":[]}}